<?xml version="1.0" encoding="utf-8"?>
<!-- Generator: Adobe Illustrator 16.0.0, SVG Export Plug-In . SVG Version: 6.00 Build 0)  -->
<!DOCTYPE svg PUBLIC "-//W3C//DTD SVG 1.1//EN" "http://www.w3.org/Graphics/SVG/1.1/DTD/svg11.dtd">
<svg version="1.1" id="Layer_1" xmlns="http://www.w3.org/2000/svg" xmlns:xlink="http://www.w3.org/1999/xlink" x="0px" y="0px"
	 width="167.119px" height="170.918px" viewBox="0 0 167.119 170.918" enable-background="new 0 0 167.119 170.918"
	 xml:space="preserve">
<g>
	<g>
		<path fill="#808184" d="M104.374,143.679l2.563-2.565l1.811,1.812l-4.697,4.697l-8.223-8.223l2.135-2.138L104.374,143.679z"/>
		<path fill="#808184" d="M107.781,131.064l1.375,1.375l2.408-2.411l1.814,1.812l-2.412,2.41l1.42,1.42l2.535-2.539l1.813,1.81
			l-4.681,4.675l-8.226-8.224l4.686-4.681l1.804,1.813L107.781,131.064z"/>
		<path fill="#808184" d="M124.277,118.211c1.174,1.222,2.115,2.339,2.409,4.089c0.319,1.931-0.403,3.637-1.774,5.009
			c-2.592,2.586-6.142,2.63-8.73,0.042c-2.669-2.668-2.61-6.237,0.039-8.885c1.69-1.688,3.76-2.241,6.008-1.409l-1.178,2.882
			c-1.086-0.493-2.227-0.394-3.088,0.468c-1.404,1.405-0.796,3.48,0.457,4.733c1.275,1.278,3.338,1.813,4.742,0.4
			c0.932-0.922,1.158-2.11,0.299-3.149l-1.745,1.747l-1.682-1.686L124.277,118.211z"/>
		<path fill="#808184" d="M132.467,116.349l0.863,1.995l-2.263,2.269l-5.063-11.391l2.332-2.327l11.32,5.122l-2.277,2.278
			l-1.962-0.892L132.467,116.349z M129.708,110.601l-0.018,0.02l1.73,3.501l1.777-1.775L129.708,110.601z"/>
		<path fill="#808184" d="M143.254,104.798l2.568-2.562l1.807,1.808l-4.699,4.699l-8.223-8.223l2.137-2.138L143.254,104.798z"/>
	</g>
	<g>
		<path fill="#808184" d="M54.129,167.328l-3.594,3.59l-23.834-23.83l10.226-10.23l3.612,3.616l-6.634,6.63l6.503,6.501l4.847-4.847
			l3.61,3.607l-4.85,4.853L54.129,167.328z"/>
		<path fill="#808184" d="M44.262,128.959c1.584-1.584,3.49-2.374,5.709-2.367c2.225,0.006,4.123,0.796,5.695,2.367l12.998,12.997
			c1.582,1.583,2.371,3.491,2.367,5.712c-0.008,2.227-0.798,4.123-2.367,5.689c-1.586,1.586-3.487,2.374-5.706,2.358
			c-2.212-0.01-4.109-0.804-5.677-2.374l-13.003-13.001c-1.579-1.579-2.368-3.486-2.368-5.712
			C41.92,132.41,42.702,130.514,44.262,128.959z M51.846,132.627c-0.57-0.57-1.256-0.858-2.057-0.857
			c-0.799-0.001-1.482,0.284-2.05,0.855c-0.571,0.57-0.858,1.258-0.869,2.062c0,0.805,0.282,1.492,0.85,2.066l13.042,13.032
			c0.568,0.574,1.25,0.854,2.057,0.847c0.805-0.006,1.492-0.295,2.063-0.866c0.567-0.57,0.853-1.255,0.858-2.05
			c-0.006-0.801-0.291-1.482-0.858-2.053L51.846,132.627z"/>
		<path fill="#808184" d="M59.107,114.725c1.997-2,4.016-2.921,6.057-2.759c1.79,0.141,3.542,1.074,5.264,2.796l3.458,3.46
			c1.687,1.685,2.472,3.751,2.361,6.193l13.059,7.737l-3.889,3.885l-11.148-6.792c-0.101,0.097-0.208,0.207-0.324,0.324
			l-2.071,2.069l8.971,8.969l-3.588,3.59l-23.814-23.811L59.107,114.725z M66.993,118.314c-1.382-1.379-2.761-1.383-4.126-0.017
			l-2.168,2.166l7.617,7.622l2.17-2.166c0.568-0.567,0.85-1.259,0.844-2.064c-0.005-0.803-0.289-1.49-0.863-2.062L66.993,118.314z"
			/>
		<path fill="#808184" d="M73.76,107.292l-3.821,3.817l-3.606-3.609l11.206-11.214l3.61,3.613l-3.795,3.802l20.197,20.201
			l-3.587,3.594L73.76,107.292z"/>
		<path fill="#808184" d="M90.618,83.215c1.747-1.747,3.689-2.595,5.833-2.53c2.01,0.091,3.838,0.951,5.476,2.589l3.454,3.454
			c1.572,1.573,2.363,3.464,2.388,5.677c0.02,2.212-0.749,4.095-2.31,5.653l-2.072,2.069l8.971,8.971l-3.592,3.592L84.949,88.877
			L90.618,83.215z M98.502,86.803c-0.62-0.62-1.307-0.935-2.063-0.938c-0.753-0.007-1.437,0.303-2.056,0.921l-2.174,2.167
			l7.623,7.622l2.17-2.17c0.566-0.567,0.85-1.255,0.844-2.06s-0.297-1.49-0.863-2.066L98.502,86.803z"/>
		<path fill="#808184" d="M104.087,69.131c1.586-1.583,3.489-2.374,5.71-2.367c2.227,0.01,4.129,0.798,5.694,2.369l12.997,12.999
			c1.59,1.583,2.375,3.486,2.368,5.712c-0.003,2.225-0.795,4.117-2.368,5.689c-1.584,1.582-3.48,2.369-5.695,2.361
			c-2.219-0.018-4.113-0.809-5.684-2.378l-12.996-13.002c-1.586-1.585-2.375-3.485-2.368-5.709S102.535,70.691,104.087,69.131z
			 M111.674,72.797c-0.568-0.571-1.256-0.854-2.053-0.854c-0.802,0-1.482,0.283-2.055,0.854c-0.57,0.573-0.858,1.258-0.861,2.066
			c-0.014,0.804,0.271,1.489,0.84,2.059l13.042,13.039c0.567,0.568,1.259,0.854,2.063,0.846c0.805-0.005,1.488-0.292,2.06-0.863
			c0.573-0.569,0.856-1.257,0.856-2.054c-0.002-0.802-0.283-1.483-0.856-2.051L111.674,72.797z"/>
		<path fill="#808184" d="M141.203,80.254l-3.594,3.594l-23.814-23.814l3.594-3.594L141.203,80.254z"/>
		<path fill="#808184" d="M125.16,48.635l20.779,11.249L129.92,43.87l3.596-3.593l23.834,23.83l-3.859,3.86l-20.197-10.316
			l15.258,15.255l-3.6,3.595l-23.828-23.834L125.16,48.635z"/>
		<path fill="#808184" d="M143.331,37.724l-3.824,3.817l-3.606-3.61l11.213-11.213l3.607,3.612l-3.804,3.801l20.202,20.201
			l-3.59,3.593L143.331,37.724z"/>
	</g>
</g>
<rect fill="#4581C2" width="76.836" height="76.838"/>
<polygon fill="#4581C2" points="7.616,69.222 69.22,7.618 7.616,7.618 "/>
<polygon fill="#2957A4" points="69.222,69.222 69.22,7.618 7.616,69.222 "/>
<polygon fill="#D1D2D3" points="7.616,7.623 7.616,69.222 7.619,69.222 16.824,33.821 "/>
<polygon fill="#E6E6E6" points="16.824,33.821 16.824,33.821 7.619,69.222 69.222,7.623 "/>
<polygon fill="#E6E6E6" points="69.222,69.222 7.619,69.227 7.619,69.222 43.023,60.017 "/>
<polygon fill="#D1D2D3" points="43.023,60.017 43.023,60.017 7.619,69.222 69.222,7.623 "/>
<polygon opacity="0.4" fill="#A7A8AB" points="0,76.838 110.672,110.674 76.836,0 "/>
</svg>
