<?xml version="1.0" encoding="utf-8"?>
<!-- Generator: Adobe Illustrator 16.0.0, SVG Export Plug-In . SVG Version: 6.00 Build 0)  -->
<!DOCTYPE svg PUBLIC "-//W3C//DTD SVG 1.1//EN" "http://www.w3.org/Graphics/SVG/1.1/DTD/svg11.dtd">
<svg version="1.1" id="Layer_1" xmlns="http://www.w3.org/2000/svg" xmlns:xlink="http://www.w3.org/1999/xlink" x="0px" y="0px"
	 width="634.119px" height="598px" viewBox="0 0 634.119 598" enable-background="new 0 0 634.119 598" xml:space="preserve">
<polygon fill="#E6E6E6" points="593.83,-0.488 0.292,593.053 0.292,-0.438 "/>
<g>
	<g>
		<path fill="#808184" d="M571.375,192.84l2.562-2.565l1.811,1.812l-4.697,4.697l-8.223-8.223l2.135-2.138L571.375,192.84z"/>
		<path fill="#808184" d="M574.781,180.226l1.375,1.375l2.408-2.411l1.813,1.812l-2.412,2.41l1.42,1.419l2.535-2.539l1.814,1.81
			l-4.683,4.674l-8.225-8.223l4.686-4.68l1.804,1.813L574.781,180.226z"/>
		<path fill="#808184" d="M591.277,167.372c1.174,1.222,2.114,2.339,2.409,4.089c0.318,1.931-0.403,3.637-1.774,5.009
			c-2.592,2.585-6.142,2.63-8.73,0.042c-2.668-2.668-2.608-6.237,0.039-8.885c1.691-1.689,3.76-2.241,6.008-1.409l-1.178,2.882
			c-1.086-0.493-2.227-0.394-3.088,0.468c-1.404,1.405-0.795,3.48,0.457,4.733c1.275,1.279,3.338,1.813,4.742,0.4
			c0.932-0.922,1.158-2.111,0.299-3.149l-1.744,1.747l-1.682-1.686L591.277,167.372z"/>
		<path fill="#808184" d="M599.467,165.51l0.863,1.995l-2.262,2.269l-5.064-11.391l2.332-2.328l11.32,5.123l-2.277,2.278
			l-1.961-0.891L599.467,165.51z M596.709,159.762l-0.018,0.02l1.729,3.501l1.777-1.775L596.709,159.762z"/>
		<path fill="#808184" d="M610.254,153.959l2.568-2.562l1.807,1.808l-4.699,4.699l-8.223-8.223l2.137-2.138L610.254,153.959z"/>
	</g>
	<g>
		<path fill="#808184" d="M521.129,216.49l-3.594,3.59l-23.834-23.83l10.227-10.23l3.611,3.616l-6.633,6.63l6.502,6.501l4.848-4.847
			l3.609,3.607l-4.851,4.853L521.129,216.49z"/>
		<path fill="#808184" d="M511.262,178.121c1.584-1.584,3.49-2.374,5.709-2.367c2.226,0.006,4.123,0.796,5.695,2.367l12.998,12.997
			c1.582,1.583,2.371,3.491,2.367,5.712c-0.008,2.227-0.797,4.123-2.367,5.689c-1.586,1.586-3.486,2.374-5.705,2.358
			c-2.213-0.01-4.109-0.804-5.678-2.374l-13.002-13.001c-1.58-1.579-2.369-3.486-2.369-5.712
			C508.92,181.572,509.703,179.675,511.262,178.121z M518.846,181.789c-0.569-0.571-1.256-0.859-2.057-0.857
			c-0.799-0.001-1.482,0.284-2.049,0.855c-0.572,0.57-0.859,1.258-0.869,2.062c0,0.805,0.281,1.492,0.85,2.066l13.041,13.032
			c0.568,0.574,1.25,0.854,2.058,0.847c0.805-0.006,1.491-0.295,2.063-0.866c0.566-0.57,0.853-1.255,0.857-2.05
			c-0.006-0.801-0.291-1.482-0.857-2.053L518.846,181.789z"/>
		<path fill="#808184" d="M526.107,163.886c1.998-2,4.016-2.921,6.057-2.759c1.791,0.141,3.543,1.074,5.264,2.796l3.459,3.46
			c1.687,1.685,2.472,3.751,2.361,6.193l13.059,7.737l-3.889,3.885l-11.148-6.792c-0.102,0.097-0.209,0.207-0.323,0.324
			l-2.072,2.069l8.971,8.969l-3.588,3.59l-23.813-23.811L526.107,163.886z M533.994,167.476c-1.383-1.379-2.762-1.383-4.127-0.017
			l-2.168,2.166l7.617,7.623l2.17-2.167c0.567-0.567,0.85-1.258,0.844-2.064c-0.004-0.802-0.289-1.49-0.863-2.062L533.994,167.476z"
			/>
		<path fill="#808184" d="M540.76,156.454l-3.819,3.817l-3.607-3.609l11.207-11.214l3.609,3.613l-3.796,3.802l20.197,20.201
			l-3.586,3.593L540.76,156.454z"/>
		<path fill="#808184" d="M557.619,132.376c1.746-1.747,3.688-2.595,5.832-2.53c2.01,0.091,3.838,0.951,5.477,2.589l3.453,3.454
			c1.572,1.574,2.363,3.464,2.389,5.677c0.021,2.212-0.75,4.095-2.311,5.653l-2.072,2.069l8.972,8.971l-3.593,3.592l-23.815-23.812
			L557.619,132.376z M565.502,135.964c-0.619-0.62-1.307-0.935-2.062-0.938c-0.755-0.007-1.438,0.303-2.058,0.921l-2.174,2.167
			l7.623,7.622l2.17-2.17c0.566-0.567,0.85-1.255,0.844-2.06c-0.006-0.805-0.297-1.49-0.862-2.066L565.502,135.964z"/>
		<path fill="#808184" d="M571.088,118.292c1.586-1.583,3.488-2.374,5.709-2.367c2.228,0.01,4.129,0.798,5.695,2.369l12.996,12.999
			c1.59,1.583,2.375,3.486,2.369,5.712c-0.005,2.225-0.795,4.117-2.369,5.689c-1.584,1.582-3.48,2.37-5.695,2.361
			c-2.219-0.017-4.113-0.809-5.684-2.378l-12.996-13.002c-1.586-1.585-2.375-3.485-2.367-5.709
			C568.752,121.744,569.535,119.853,571.088,118.292z M578.674,121.958c-0.567-0.571-1.256-0.854-2.053-0.854
			c-0.801,0-1.482,0.283-2.055,0.854c-0.57,0.573-0.857,1.258-0.861,2.066c-0.014,0.804,0.271,1.489,0.84,2.059l13.043,13.04
			c0.566,0.568,1.258,0.853,2.062,0.845c0.805-0.005,1.487-0.292,2.061-0.864c0.572-0.569,0.855-1.256,0.855-2.053
			c-0.002-0.802-0.283-1.483-0.855-2.051L578.674,121.958z"/>
		<path fill="#808184" d="M608.203,129.416l-3.594,3.594l-23.814-23.814l3.594-3.594L608.203,129.416z"/>
		<path fill="#808184" d="M592.16,97.797l20.779,11.249l-16.021-16.014l3.596-3.593l23.834,23.83l-3.858,3.86l-20.197-10.316
			l15.258,15.255l-3.6,3.595l-23.828-23.834L592.16,97.797z"/>
		<path fill="#808184" d="M610.332,86.885l-3.824,3.817l-3.606-3.61l11.213-11.213l3.606,3.612l-3.803,3.801l20.201,20.201
			l-3.59,3.593L610.332,86.885z"/>
	</g>
</g>
<rect x="467" y="49.162" fill="#4581C2" width="76.835" height="76.838"/>
<polygon fill="#4581C2" points="474.617,118.383 536.221,56.78 474.617,56.78 "/>
<polygon fill="#2957A4" points="536.223,118.383 536.221,56.78 474.617,118.383 "/>
<polygon fill="#D1D2D3" points="474.617,56.785 474.617,118.383 474.62,118.383 483.824,82.983 "/>
<polygon fill="#E6E6E6" points="483.824,82.983 483.824,82.983 474.62,118.383 536.223,56.785 "/>
<polygon fill="#E6E6E6" points="536.223,118.383 474.62,118.388 474.62,118.383 510.023,109.178 "/>
<polygon fill="#D1D2D3" points="510.023,109.178 510.023,109.178 474.62,118.383 536.223,56.785 "/>
<polygon opacity="0.2" fill="#4D4D4D" enable-background="new    " points="467,126 577.672,159.835 543.836,49.162 "/>
</svg>
